Coordinates
version=1
nRows=16
nColumns=33
inDegrees=yes

Units are S.I. units (second, meters, Newtons, ...)
Angles are in degrees.

endheader
time	ground_thorax_rot_x	ground_thorax_rot_y	ground_thorax_rot_z	ground_thorax_tx	ground_thorax_ty	ground_thorax_tz	clav_prot_r	clav_elev_r	scapula_abduction_r	scapula_elevation_r	scapula_upward_rot_r	scapula_winging_r	shoulder_elv_r	plane_of_elev_r	axial_rot_r	elbow_flexion_r	pro_sup_r	wrist_flex_r	wrist_dev_r	clav_prot_l	clav_elev_l	scapula_abduction_l	scapula_elevation_l	scapula_upward_rot_l	scapula_winging_l	shoulder_elv_l	plane_of_elev_l	axial_rot_l	elbow_flexion_l	pro_sup_l	wrist_flex_l	wrist_dev_l
      1.84000000	    -40.63727834	    -10.90722872	      8.72526791	   -190.78069745	    838.42743434	    -11.21311982	      4.47632158	    -45.00000000	     33.13014260	    -45.00000000	    -20.10958681	   2050.83566934	     68.11725755	     21.52035567	   -179.99999979	    725.65579021	    273.35305427	     18.69633674	      9.85693284	     15.52328879	     38.07111185	    -34.41765065	    -45.00000000	    -45.00000000	   -637.44702258	  -3530.67081363	     18.06117869	    -48.07459760	   -350.25490911	     30.74257930	      9.34777961	    -21.57211154
      1.85000000	    -40.53214075	    -10.71416655	      8.68573140	   -192.31348346	    840.80243553	    -11.23605530	      4.11232527	    -45.00000000	     33.81167584	    -45.00000000	    -18.99635938	   2050.28668133	     68.22627235	     21.51288731	   -179.99999979	    725.85647456	    272.94667086	     18.60337746	      9.88090232	     15.18803049	     38.01595826	    -34.20111957	    -45.00000000	    -45.00000000	   -637.15749411	  -3530.63393476	     18.24747659	    -48.46805656	   -350.15887885	     30.80097874	      9.16551015	    -21.56365610
      1.86000000	    -40.48698393	    -10.40571249	      8.58829299	   -193.55582848	    843.02591686	    -11.23046292	      3.94697789	    -45.00000000	     33.89238812	    -45.00000000	    -18.32253026	   2050.16462034	     68.39826446	     21.51729358	   -179.99999979	    725.96234437	    272.30901348	     18.66408564	      9.89956459	     15.11003865	     38.17045907	    -34.23889663	    -45.00000000	    -45.00000000	   -636.92327541	  -3530.61501759	     18.28671894	    -48.54584363	   -350.07540986	     30.73763071	      9.16911146	    -21.62468062
      1.87000000	    -40.39247673	     -9.29900476	      7.75911379	   -194.52205085	    845.08420379	    -11.20202261	      3.94662836	    -45.00000000	     33.92506183	    -45.00000000	    -17.37389984	   2050.12091019	     68.14891940	     21.62567903	   -179.99999979	    725.89169321	    271.59039269	     19.03591753	      9.85171503	     14.77582817	     38.36874879	    -34.92472350	    -45.00000000	    -45.00000000	   -636.96865311	  -3530.86544288	     18.38484694	    -48.82038960	   -350.24858930	     30.71831075	      9.46839778	    -21.75240644
      1.88000000	    -40.34516477	     -9.58942482	      8.24531991	   -195.22889250	    846.96813059	    -11.15079252	      3.80108000	    -45.00000000	     34.35030514	    -45.00000000	    -17.02901815	   2049.84813908	     68.40818372	     21.60670471	   -179.99999979	    726.08994627	    270.83744522	     18.82966061	     10.03427894	     15.12079418	     37.81194404	    -34.48355917	    -45.00000000	    -45.00000000	   -636.59026263	  -3530.64586673	     18.43811149	    -48.38013410	   -349.89738775	     30.45158515	      9.10099652	    -21.64262889
      1.89000000	    -40.23054133	     -9.41317151	      8.31853067	   -195.69378762	    848.67033698	    -11.07665081	      3.95300834	    -45.00000000	     34.28288763	    -45.00000000	    -16.80266049	   2049.83052089	     68.64710557	     21.66053250	   -179.99999979	    726.00749825	    269.77839860	     18.87306206	     10.02875209	     14.96333540	     38.18663672	    -34.37761510	    -45.00000000	    -45.00000000	   -636.67088835	  -3530.48911943	     18.38346778	    -47.96380190	   -350.00044589	     30.23779566	      9.23123862	    -21.68243219
      1.90000000	    -40.15144420	     -8.92421633	      8.07022591	   -195.93432314	    850.18649893	    -10.97906724	      3.97557721	    -45.00000000	     34.47196489	    -45.00000000	    -16.27751591	   2049.73318226	     68.60015544	     21.78485095	   -179.99999979	    726.01415708	    268.72413082	     19.00262910	     10.12920901	     14.95787572	     37.91087911	    -34.62944335	    -45.00000000	    -45.00000000	   -636.58186990	  -3530.47270387	     18.46356921	    -47.90802497	   -349.97086372	     30.04903317	      9.20446450	    -21.66879562
      1.91000000	    -40.16304105	     -8.92626187	      8.05135250	   -195.96692436	    851.52349961	    -10.85689935	      3.94423396	    -45.00000000	     34.68475240	    -45.00000000	    -15.77075694	   2049.77205621	     68.58573819	     21.72194727	   -179.99999979	    726.04900114	    267.76482512	     19.01019805	     10.17412488	     14.98056907	     38.16665661	    -34.49740962	    -45.00000000	    -45.00000000	   -636.33769979	  -3530.20010087	     18.39388967	    -47.82288069	   -349.70244336	     29.87938010	      9.16922235	    -21.74303806
      1.92000000	    -40.01002925	     -8.58689000	      8.11611776	   -195.80326042	    852.68896515	    -10.70965937	      3.99790568	    -45.00000000	     34.51223624	    -45.00000000	    -15.44436785	   2049.73422255	     68.77764974	     21.87974455	   -179.99999979	    726.07917977	    266.88652694	     19.08659636	     10.26667318	     14.96698676	     37.86898088	    -34.71714437	    -45.00000000	    -45.00000000	   -636.31933961	  -3530.17980948	     18.42160006	    -47.67281413	   -349.69276470	     29.76227923	      9.02507989	    -21.67224190
      1.93000000	    -39.92355719	     -8.54706489	      8.17167810	   -195.45420171	    853.69222128	    -10.53862586	      3.68901637	    -45.00000000	     34.67543687	    -45.00000000	    -15.44971372	   2050.08058897	     68.91123763	     21.67406613	   -179.99999979	    726.00078364	    266.10920340	     19.02594256	     10.22262614	     15.11034856	     38.41920279	    -34.58216347	    -45.00000000	    -45.00000000	   -636.29311894	  -3529.95042599	     18.42877594	    -47.72496948	   -349.55916750	     29.74950142	      9.10717009	    -21.78302839
      1.94000000	    -39.81638934	     -8.39738927	      8.18085957	   -194.93114142	    854.55072982	    -10.34548693	      4.08348601	    -45.00000000	     35.01992904	    -45.00000000	    -14.89922593	   2049.70437940	     68.85936635	     21.96888813	   -179.99999979	    726.18426525	    265.43328514	     19.21399688	     10.38395858	     14.99476394	     37.70449788	    -34.75724605	    -45.00000000	    -45.00000000	   -636.21792573	  -3530.08616024	     18.43696768	    -47.71937301	   -349.74212861	     29.80811142	      8.87982116	    -21.62514130
      1.95000000	    -39.71898752	     -8.20110600	      8.24388850	   -194.24714630	    855.28324727	    -10.13257593	      3.80951428	    -45.00000000	     34.92700959	    -45.00000000	    -14.65550660	   2050.16023245	     69.11792922	     21.67759036	   -179.99999979	    726.12441370	    264.97812250	     19.12307829	     10.32047400	     15.06177036	     38.45139928	    -34.83477066	    -45.00000000	    -45.00000000	   -636.29015556	  -3529.78169631	     18.42553960	    -47.77766021	   -349.53647062	     29.94681930	      8.89885764	    -21.73635360
      1.96000000	    -39.60723667	     -8.05616748	      8.25058964	   -193.41415407	    855.91467581	     -9.90078866	      3.96134768	    -45.00000000	     35.26249336	    -45.00000000	    -14.34480152	   2049.85177894	     69.03439761	     21.96915042	   -179.99999979	    726.14424609	    264.73009490	     19.36262095	     10.44409797	     15.11513900	     37.69693571	    -35.00179476	    -45.00000000	    -45.00000000	   -636.14649855	  -3529.93473548	     18.59165874	    -47.68552830	   -349.65153422	     30.15262258	      8.67036760	    -21.61078333
      1.97000000	    -39.52764191	     -7.97782520	      8.31888602	   -192.45160123	    856.46528021	     -9.65186095	      3.94036307	    -45.00000000	     35.29622911	    -45.00000000	    -13.90557585	   2050.16105529	     69.29459386	     21.73410865	   -179.99999979	    726.09709950	    264.74571260	     19.27970554	     10.38887399	     15.05630533	     38.40164222	    -35.02168635	    -45.00000000	    -45.00000000	   -636.26159750	  -3529.64783508	     18.49001396	    -47.72290878	   -349.40934809	     30.43789433	      8.65478025	    -21.72343537
      1.98000000	    -39.45734888	     -7.98647777	      8.31552374	   -191.37582417	    856.95916704	     -9.38544056	      4.01036924	    -45.00000000	     35.54191215	    -45.00000000	    -13.70755958	   2050.05560630	     69.18237580	     21.95874594	   -179.99999979	    726.03931443	    265.00066813	     19.59324851	     10.51724019	     15.01161564	     37.53447467	    -34.92175743	    -45.00000000	    -45.00000000	   -636.14126457	  -3529.64163424	     18.74166147	    -47.49988102	   -349.40770244	     30.73110470	      8.35462353	    -21.60415287
      1.99000000	    -39.33709986	     -7.85468238	      8.32772748	   -190.20718032	    857.41616344	     -9.10148072	      3.99950811	    -45.00000000	     35.78604851	    -45.00000000	    -13.27108688	   2050.10832513	     69.31247859	     21.90626878	   -179.99999979	    725.95773834	    265.67707404	     19.54256885	     10.43572694	     14.89066217	     37.96803163	    -35.16384577	    -45.00000000	    -45.00000000	   -636.11602884	  -3529.60273690	     18.68537674	    -47.37930420	   -349.21515583	     31.24904329	      8.31281155	    -21.67966755
